<svg xmlns="http://www.w3.org/2000/svg" viewBox="0 0 102 42" width="102" height="42">
  <path fill="white" d="M93.5 15.8c-3.6 0-6.1 1.6-7.4 4.1l-.3-3.7h-6.3v27.4l7.2-1.5V34c1.3.9 3.2 2.2 6.6 2.2 6.7 0 12.8-5.4 12.8-10.5.1-5.7-5.9-9.9-12.6-9.9zm-1.1 15.5c-2.2 0-3.5-.8-4.4-1.8V22.4c1-1.1 2.3-1.8 4.4-1.8 3.4 0 5.7 2.7 5.7 5.4 0 2.7-2.3 5.3-5.7 5.3zM67 4.2L59.8 5.7v5.6l7.2-1.5V4.2zm0 12H59.8V35.8H67V16.2zm-9.8 2.7l-.5-2.7h-6.2V35.8h7.2V25.2c1.7-2.2 4.6-1.8 5.5-1.5v-6.5c-1-.4-4.6-1.1-6-1.3zm-19.8-4.3c-2.8 0-4.6 1.3-5.6 2.2l-.4-1.8H26V44.8l7.2-1.5v-8.5c1 .7 2.6 1.7 5.2 1.7 5.3 0 10.1-4.2 10.1-10.2 0-5.7-4.9-9.7-11.1-9.7zM36 30.7c-1.7 0-2.7-.6-3.5-1.4v-8c.8-.9 1.9-1.5 3.5-1.5 2.7 0 4.5 2.1 4.5 5.5 0 3.4-1.8 5.4-4.5 5.4zM6.9 20.6c0-1.1.9-1.6 2.5-1.6 2.2 0 5 .7 7.2 1.9v-6.8c-2.4-.9-4.8-1.3-7.2-1.3C3.7 12.8 0 16 0 21c0 7.8 10.8 6.6 10.8 9.9 0 1.3-1.1 1.7-2.8 1.7-2.5 0-5.6-1-8.1-2.4v6.9c2.7 1.2 5.5 1.7 8.1 1.7 6.2 0 10.4-3 10.4-8.2-.1-8.3-10.5-6.9-10.5-10z"/>
</svg>
